<svg width="450" height="150" viewBox="0 0 450 150" fill="none" xmlns="http://www.w3.org/2000/svg">
<path d="M165.865 68.2347C167.378 66.7249 167.378 64.2772 165.865 62.7675L146.676 43.6323C145.162 42.1226 142.707 42.1226 141.193 43.6323L106.928 77.8023C100.115 84.596 100.115 95.6109 106.928 102.405C113.741 109.198 124.786 109.198 131.599 102.405L165.865 68.2347Z" fill="#5154DB"/>
<path d="M72.1355 68.2347C70.6215 66.725 70.6215 64.2773 72.1355 62.7675L91.3241 43.6324C92.838 42.1226 95.2926 42.1226 96.8065 43.6324L131.072 77.8023C137.885 84.5961 137.885 95.6109 131.072 102.405C124.259 109.198 113.214 109.198 106.401 102.405L72.1355 68.2347Z" fill="#F97928"/>
<path d="M200 59.5H226.145V65.08H216.2V91H209.945V65.08H200V59.5Z" fill="#5154DB"/>
<path d="M234.857 91.495C232.757 91.495 230.882 91.015 229.232 90.055C227.612 89.065 226.337 87.685 225.407 85.915C224.507 84.145 224.057 82.135 224.057 79.885C224.057 77.635 224.507 75.625 225.407 73.855C226.337 72.085 227.612 70.72 229.232 69.76C230.882 68.77 232.757 68.275 234.857 68.275C236.417 68.275 237.857 68.545 239.177 69.085C240.527 69.625 241.652 70.405 242.552 71.425L242.957 68.77H248.132V91H242.957L242.552 88.3C241.622 89.35 240.497 90.145 239.177 90.685C237.857 91.225 236.417 91.495 234.857 91.495ZM229.997 79.885C229.997 81.745 230.567 83.275 231.707 84.475C232.847 85.675 234.302 86.275 236.072 86.275C237.872 86.275 239.342 85.675 240.482 84.475C241.622 83.275 242.192 81.745 242.192 79.885C242.192 78.025 241.622 76.495 240.482 75.295C239.342 74.095 237.872 73.495 236.072 73.495C234.302 73.495 232.847 74.095 231.707 75.295C230.567 76.495 229.997 78.025 229.997 79.885Z" fill="#5154DB"/>
<path d="M256.179 67.51C256.179 64.69 256.989 62.545 258.609 61.075C260.259 59.605 262.299 58.87 264.729 58.87C266.949 58.87 268.944 59.53 270.714 60.85L268.599 64.81C267.999 64.45 267.459 64.18 266.979 64C266.499 63.82 265.989 63.73 265.449 63.73C264.429 63.73 263.619 64.045 263.019 64.675C262.449 65.305 262.164 66.25 262.164 67.51V68.77H268.509V73.72H262.164V91H256.179V73.72H252.084V68.77H256.179V67.51Z" fill="#5154DB"/>
<path d="M281.932 91.36C279.562 91.36 277.702 90.685 276.352 89.335C275.032 87.985 274.372 85.915 274.372 83.125V73.675H270.367V68.77H274.372V63.1L280.312 62.47V68.77H286.297V73.675H280.312V83.125C280.312 84.115 280.552 84.88 281.032 85.42C281.542 85.93 282.247 86.185 283.147 86.185C284.017 86.185 284.902 85.975 285.802 85.555L287.377 90.19C286.477 90.61 285.592 90.91 284.722 91.09C283.882 91.27 282.952 91.36 281.932 91.36Z" fill="#5154DB"/>
<path d="M300.204 91.495C298.104 91.495 296.229 91.015 294.579 90.055C292.959 89.065 291.684 87.685 290.754 85.915C289.854 84.145 289.404 82.135 289.404 79.885C289.404 77.635 289.854 75.625 290.754 73.855C291.684 72.085 292.959 70.72 294.579 69.76C296.229 68.77 298.104 68.275 300.204 68.275C301.764 68.275 303.204 68.545 304.524 69.085C305.874 69.625 306.999 70.405 307.899 71.425L308.304 68.77H313.479V91H308.304L307.899 88.3C306.969 89.35 305.844 90.145 304.524 90.685C303.204 91.225 301.764 91.495 300.204 91.495ZM295.344 79.885C295.344 81.745 295.914 83.275 297.054 84.475C298.194 85.675 299.649 86.275 301.419 86.275C303.219 86.275 304.689 85.675 305.829 84.475C306.969 83.275 307.539 81.745 307.539 79.885C307.539 78.025 306.969 76.495 305.829 75.295C304.689 74.095 303.219 73.495 301.419 73.495C299.649 73.495 298.194 74.095 297.054 75.295C295.914 76.495 295.344 78.025 295.344 79.885Z" fill="#5154DB"/>
<path d="M316.755 68.77H323.28L326.16 75.97L329.4 84.745L332.595 75.97L335.475 68.77H341.865L332.46 91H326.205L316.755 68.77Z" fill="#5154DB"/>
<path d="M345.158 68.77H351.143V91H345.158V68.77ZM344.528 62.56C344.528 61.54 344.873 60.7 345.563 60.04C346.253 59.38 347.123 59.05 348.173 59.05C349.223 59.05 350.093 59.38 350.783 60.04C351.503 60.7 351.863 61.54 351.863 62.56C351.863 63.55 351.503 64.375 350.783 65.035C350.093 65.665 349.223 65.98 348.173 65.98C347.123 65.98 346.253 65.665 345.563 65.035C344.873 64.375 344.528 63.55 344.528 62.56Z" fill="#5154DB"/>
<path d="M367.826 91.585C365.336 91.585 363.161 91.105 361.301 90.145C359.471 89.185 358.046 87.835 357.026 86.095C356.036 84.325 355.541 82.27 355.541 79.93C355.541 77.65 356.021 75.64 356.981 73.9C357.971 72.13 359.351 70.765 361.121 69.805C362.891 68.815 364.931 68.32 367.241 68.32C370.871 68.32 373.721 69.34 375.791 71.38C377.861 73.39 378.896 76.15 378.896 79.66C378.896 80.35 378.851 81.085 378.761 81.865H361.616C361.826 83.275 362.501 84.4 363.641 85.24C364.811 86.08 366.281 86.5 368.051 86.5C369.251 86.5 370.406 86.32 371.516 85.96C372.626 85.57 373.541 85.045 374.261 84.385L377.591 87.805C376.421 89.005 374.981 89.935 373.271 90.595C371.561 91.255 369.746 91.585 367.826 91.585ZM373.136 77.905C373.016 76.465 372.446 75.325 371.426 74.485C370.406 73.645 369.071 73.225 367.421 73.225C365.831 73.225 364.526 73.645 363.506 74.485C362.516 75.295 361.916 76.435 361.706 77.905H373.136Z" fill="#5154DB"/>
</svg>
